# xmcd
#
# Track frame offsets:
#	150
#	14357
#	26370
#	48559
#	59309
#	72761
#	87361
#	96736
#	108669
#	124190
#	136888
#	148647
#	162660
#	176669
#	195481
#	207278
#	232662
#	246033
#	262245
#	273248
#	288398
#	301671
#
# Disc length: 4146 seconds
#
# Revision: 0
# Processed by: cddbd v1.5.2PL0 Copyright (c) Steve Scherf et al.
# Submitted via: EasyCDDAExtractor 16.0.6.1
#
DISCID=42103016
DTITLE=Μούσχουρη Νανά - Τραγούδια της χώρας μου-Ν. Μούσχουρη
DYEAR=1967
DGENRE=Έντεχνη λαϊκή
TTITLE0=Ήταν καμάρι της αυγής
TTITLE1=Λαύριο
TTITLE2=Μανούλα μου
TTITLE3=Με τ' άσπρο μαντίλι
TTITLE4=Πάμε μιά βόλτα
TTITLE5=Κάθε τρελλό παιδί
TTITLE6=Το παραθύρι
TTITLE7=Υπομονή
TTITLE8=Η μπαλάντα του στρατιώτη
TTITLE9=Φεγγάρι μου
TTITLE10=Τώρα που πας στην ξενιτιά
TTITLE11=Χάρτινο το φεγγαράκι
TTITLE12=Θάλασσα πλατιά
TTITLE13=Ένας μύθος
TTITLE14=Οδός ονείρων
TTITLE15=Δεν ήταν νησί
TTITLE16=Μίλησέ μου
TTITLE17=Αγάπη πού 'γινες
TTITLE18=Αστέρι αστεράκι μου
TTITLE19=Ηλισσός
TTITLE20=Κάπου υπάρχει αγάπη
TTITLE21=Υμηττός
EXTD=
EXTT0=
EXTT1=
EXTT2=
EXTT3=
EXTT4=
EXTT5=
EXTT6=
EXTT7=
EXTT8=
EXTT9=
EXTT10=
EXTT11=
EXTT12=
EXTT13=
EXTT14=
EXTT15=
EXTT16=
EXTT17=
EXTT18=
EXTT19=
EXTT20=
EXTT21=
PLAYORDER=
